<svg width="170" height="68" viewBox="0 0 170 68" fill="none" xmlns="http://www.w3.org/2000/svg">
<circle cx="30" cy="30" r="28.5" stroke="black" stroke-width="3"/>
<line x1="30.5" x2="30.5" y2="60" stroke="black"/>
<line x1="18.5381" y1="57.7413" x2="41.4991" y2="2.3085" stroke="black"/>
<line x1="18.9815" y1="2.09235" x2="41.9425" y2="57.5251" stroke="black"/>
<line y1="29.5" x2="60" y2="29.5" stroke="black"/>
<line y1="29.5" x2="60" y2="29.5" stroke="black"/>
<line x1="2.09235" y1="41.0185" x2="57.5251" y2="18.0575" stroke="black"/>
<line x1="2.47503" y1="18.0576" x2="57.9078" y2="41.0186" stroke="black"/>
<line x1="8.43356" y1="50.8598" x2="50.86" y2="8.43342" stroke="black"/>
<line x1="9.14066" y1="8.43307" x2="51.5671" y2="50.8595" stroke="black"/>
<rect x="29.5" y="30" width="0.5" height="0.5" fill="black"/>
<rect x="29" y="30.5" width="0.5" height="0.5" fill="black"/>
<rect x="29.5" y="30.5" width="0.5" height="0.5" fill="black"/>
<rect x="29.5" y="31" width="0.5" height="0.5" fill="black"/>
<path d="M74.18 30.5C71.8867 30.5 70.0667 29.82 68.72 28.46C67.3733 27.1 66.7 25.2667 66.7 22.96C66.7 20.6533 67.3333 18.82 68.6 17.46C69.8667 16.0867 71.58 15.4 73.74 15.4C75.2733 15.4 76.5867 15.8467 77.68 16.74C78.7867 17.6333 79.5 18.8333 79.82 20.34L78.24 20.72C78.0267 19.5467 77.5133 18.6133 76.7 17.92C75.8867 17.2267 74.9 16.88 73.74 16.88C72.0867 16.88 70.7733 17.4267 69.8 18.52C68.84 19.6133 68.36 21.0933 68.36 22.96C68.3733 24.8133 68.9 26.2867 69.94 27.38C70.9933 28.4733 72.4067 29.02 74.18 29.02C75.5933 29.02 76.7733 28.6067 77.72 27.78C78.68 26.94 79.2667 25.8133 79.48 24.4L81.08 24.8C80.8133 26.5467 80.0533 27.9333 78.8 28.96C77.56 29.9867 76.02 30.5 74.18 30.5ZM85.7883 30.4C84.6416 30.4 83.7016 30.12 82.9683 29.56C82.2483 28.9867 81.8883 28.2533 81.8883 27.36C81.8883 25.52 83.4083 24.4133 86.4483 24.04L88.9483 23.74C89.4949 23.6733 89.7683 23.4133 89.7683 22.96C89.7683 22.3333 89.4949 21.8333 88.9483 21.46C88.4016 21.0733 87.6883 20.88 86.8083 20.88C85.9016 20.88 85.1283 21.1267 84.4883 21.62C83.8616 22.1133 83.5283 22.6733 83.4883 23.3L82.1083 22.72C82.2016 21.8667 82.7016 21.12 83.6083 20.48C84.5149 19.8267 85.6016 19.5 86.8683 19.5C88.1749 19.5 89.2349 19.84 90.0483 20.52C90.8616 21.1867 91.2683 22.08 91.2683 23.2V30H89.8883L89.7283 28.32H89.7083C89.3483 28.9733 88.8283 29.4867 88.1483 29.86C87.4683 30.22 86.6816 30.4 85.7883 30.4ZM86.0483 29.02C87.1149 29.02 87.9949 28.7067 88.6883 28.08C89.3816 27.4533 89.7283 26.6533 89.7283 25.68V24.96L86.6083 25.34C84.4749 25.6067 83.4083 26.2733 83.4083 27.34C83.4083 27.8467 83.6549 28.2533 84.1483 28.56C84.6416 28.8667 85.2749 29.02 86.0483 29.02ZM97.9119 30.4C96.4319 30.4 95.2052 29.8867 94.2319 28.86C93.2585 27.8333 92.7719 26.5333 92.7719 24.96C92.7719 23.3867 93.2519 22.0867 94.2119 21.06C95.1852 20.02 96.4119 19.5 97.8919 19.5C99.5852 19.5 100.885 20.2 101.792 21.6H101.812V15.3H103.352V30H102.012L101.872 28.26H101.852C100.932 29.6867 99.6185 30.4 97.9119 30.4ZM98.0919 29.02C99.1719 29.02 100.072 28.6333 100.792 27.86C101.512 27.0733 101.872 26.1067 101.872 24.96C101.872 23.8 101.512 22.8333 100.792 22.06C100.072 21.2867 99.1719 20.9 98.0919 20.9C96.9985 20.9 96.0919 21.2867 95.3719 22.06C94.6519 22.8333 94.2919 23.8 94.2919 24.96C94.2919 26.12 94.6519 27.0867 95.3719 27.86C96.0919 28.6333 96.9985 29.02 98.0919 29.02ZM110.539 30.4C108.926 30.4 107.593 29.88 106.539 28.84C105.486 27.7867 104.959 26.4533 104.959 24.84C104.959 23.2933 105.446 22.02 106.419 21.02C107.393 20.0067 108.626 19.5 110.119 19.5C111.586 19.5 112.766 20 113.659 21C114.566 22 115.033 23.2867 115.059 24.86C115.059 25.1267 115.053 25.3267 115.039 25.46H106.539C106.646 26.5133 107.073 27.3733 107.819 28.04C108.566 28.6933 109.479 29.02 110.559 29.02C111.333 29.02 112.033 28.84 112.659 28.48C113.286 28.12 113.746 27.66 114.039 27.1L115.359 27.64C115.026 28.4533 114.419 29.12 113.539 29.64C112.659 30.1467 111.659 30.4 110.539 30.4ZM106.559 24.12H113.439C113.346 23.1067 112.999 22.32 112.399 21.76C111.799 21.1867 111.033 20.9 110.099 20.9C109.166 20.9 108.379 21.2 107.739 21.8C107.099 22.3867 106.706 23.16 106.559 24.12ZM122.264 19.5C123.424 19.5 124.337 19.8533 125.004 20.56C125.67 21.2667 126.004 22.24 126.004 23.48V30H124.464V23.64C124.464 22.7733 124.224 22.0867 123.744 21.58C123.277 21.0733 122.644 20.82 121.844 20.82C120.83 20.82 119.997 21.1467 119.344 21.8C118.69 22.44 118.364 23.2733 118.364 24.3V30H116.844V19.9H118.224L118.364 21.4H118.384C119.277 20.1333 120.57 19.5 122.264 19.5ZM132.838 30.4C131.265 30.4 129.978 29.8933 128.978 28.88C127.992 27.8533 127.498 26.5467 127.498 24.96C127.498 23.36 127.965 22.0533 128.898 21.04C129.845 20.0133 131.058 19.5 132.538 19.5C133.672 19.5 134.665 19.82 135.518 20.46C136.372 21.1 136.925 21.9333 137.178 22.96L135.698 23.3C135.498 22.58 135.105 22 134.518 21.56C133.945 21.12 133.285 20.9 132.538 20.9C131.525 20.9 130.685 21.28 130.018 22.04C129.352 22.7867 129.018 23.76 129.018 24.96C129.018 26.16 129.378 27.14 130.098 27.9C130.818 28.6467 131.732 29.02 132.838 29.02C133.758 29.02 134.558 28.7533 135.238 28.22C135.932 27.6733 136.345 26.9667 136.478 26.1L137.958 26.4C137.772 27.56 137.192 28.52 136.218 29.28C135.258 30.0267 134.132 30.4 132.838 30.4ZM144.543 30.4C142.93 30.4 141.597 29.88 140.543 28.84C139.49 27.7867 138.963 26.4533 138.963 24.84C138.963 23.2933 139.45 22.02 140.423 21.02C141.397 20.0067 142.63 19.5 144.123 19.5C145.59 19.5 146.77 20 147.663 21C148.57 22 149.037 23.2867 149.063 24.86C149.063 25.1267 149.057 25.3267 149.043 25.46H140.543C140.65 26.5133 141.077 27.3733 141.823 28.04C142.57 28.6933 143.483 29.02 144.563 29.02C145.337 29.02 146.037 28.84 146.663 28.48C147.29 28.12 147.75 27.66 148.043 27.1L149.363 27.64C149.03 28.4533 148.423 29.12 147.543 29.64C146.663 30.1467 145.663 30.4 144.543 30.4ZM140.563 24.12H147.443C147.35 23.1067 147.003 22.32 146.403 21.76C145.803 21.1867 145.037 20.9 144.103 20.9C143.17 20.9 142.383 21.2 141.743 21.8C141.103 22.3867 140.71 23.16 140.563 24.12ZM74.18 56.5C71.8867 56.5 70.0667 55.82 68.72 54.46C67.3733 53.1 66.7 51.2667 66.7 48.96C66.7 46.6533 67.3333 44.82 68.6 43.46C69.8667 42.0867 71.58 41.4 73.74 41.4C75.2733 41.4 76.5867 41.8467 77.68 42.74C78.7867 43.6333 79.5 44.8333 79.82 46.34L78.24 46.72C78.0267 45.5467 77.5133 44.6133 76.7 43.92C75.8867 43.2267 74.9 42.88 73.74 42.88C72.0867 42.88 70.7733 43.4267 69.8 44.52C68.84 45.6133 68.36 47.0933 68.36 48.96C68.3733 50.8133 68.9 52.2867 69.94 53.38C70.9933 54.4733 72.4067 55.02 74.18 55.02C75.5933 55.02 76.7733 54.6067 77.72 53.78C78.68 52.94 79.2667 51.8133 79.48 50.4L81.08 50.8C80.8133 52.5467 80.0533 53.9333 78.8 54.96C77.56 55.9867 76.02 56.5 74.18 56.5ZM91.3883 54.92C90.4016 55.9067 89.0949 56.4 87.4683 56.4C85.8416 56.4 84.5349 55.9067 83.5483 54.92C82.5749 53.92 82.0883 52.6 82.0883 50.96C82.0883 49.3067 82.5749 47.9867 83.5483 47C84.5349 46 85.8416 45.5 87.4683 45.5C89.0949 45.5 90.4016 46 91.3883 47C92.3749 47.9867 92.8683 49.3067 92.8683 50.96C92.8683 52.6 92.3749 53.92 91.3883 54.92ZM84.6483 53.92C85.3549 54.6533 86.2949 55.02 87.4683 55.02C88.6416 55.02 89.5749 54.6533 90.2683 53.92C90.9749 53.1733 91.3283 52.1867 91.3283 50.96C91.3283 49.7333 90.9749 48.7533 90.2683 48.02C89.5749 47.2733 88.6416 46.9 87.4683 46.9C86.2949 46.9 85.3549 47.2733 84.6483 48.02C83.9549 48.7533 83.6083 49.7333 83.6083 50.96C83.6083 52.1867 83.9549 53.1733 84.6483 53.92ZM94.4609 56V41.3H95.9809V56H94.4609ZM97.9766 56V41.3H99.4966V56H97.9766ZM106.672 56.4C105.059 56.4 103.726 55.88 102.672 54.84C101.619 53.7867 101.092 52.4533 101.092 50.84C101.092 49.2933 101.579 48.02 102.552 47.02C103.526 46.0067 104.759 45.5 106.252 45.5C107.719 45.5 108.899 46 109.792 47C110.699 48 111.166 49.2867 111.192 50.86C111.192 51.1267 111.186 51.3267 111.172 51.46H102.672C102.779 52.5133 103.206 53.3733 103.952 54.04C104.699 54.6933 105.612 55.02 106.692 55.02C107.466 55.02 108.166 54.84 108.792 54.48C109.419 54.12 109.879 53.66 110.172 53.1L111.492 53.64C111.159 54.4533 110.552 55.12 109.672 55.64C108.792 56.1467 107.792 56.4 106.672 56.4ZM102.692 50.12H109.572C109.479 49.1067 109.132 48.32 108.532 47.76C107.932 47.1867 107.166 46.9 106.232 46.9C105.299 46.9 104.512 47.2 103.872 47.8C103.232 48.3867 102.839 49.16 102.692 50.12ZM117.917 56.4C116.343 56.4 115.057 55.8933 114.057 54.88C113.07 53.8533 112.577 52.5467 112.577 50.96C112.577 49.36 113.043 48.0533 113.977 47.04C114.923 46.0133 116.137 45.5 117.617 45.5C118.75 45.5 119.743 45.82 120.597 46.46C121.45 47.1 122.003 47.9333 122.257 48.96L120.777 49.3C120.577 48.58 120.183 48 119.597 47.56C119.023 47.12 118.363 46.9 117.617 46.9C116.603 46.9 115.763 47.28 115.097 48.04C114.43 48.7867 114.097 49.76 114.097 50.96C114.097 52.16 114.457 53.14 115.177 53.9C115.897 54.6467 116.81 55.02 117.917 55.02C118.837 55.02 119.637 54.7533 120.317 54.22C121.01 53.6733 121.423 52.9667 121.557 52.1L123.037 52.4C122.85 53.56 122.27 54.52 121.297 55.28C120.337 56.0267 119.21 56.4 117.917 56.4ZM128.451 56.4C127.504 56.4 126.737 56.1133 126.151 55.54C125.564 54.9533 125.271 54.2 125.271 53.28V47.16H123.051V45.9H125.271V42.9L126.791 42.54V45.9H131.311V47.16H126.791V53.12C126.791 53.6933 126.951 54.1667 127.271 54.54C127.604 54.9 128.044 55.08 128.591 55.08C129.124 55.08 129.591 54.9 129.991 54.54C130.404 54.1667 130.657 53.6667 130.751 53.04L131.991 53.56C131.857 54.4133 131.451 55.1 130.771 55.62C130.104 56.14 129.331 56.4 128.451 56.4ZM133.994 43.94C133.648 43.94 133.374 43.84 133.174 43.64C132.974 43.4267 132.874 43.1533 132.874 42.82C132.874 42.4867 132.974 42.22 133.174 42.02C133.388 41.82 133.661 41.72 133.994 41.72C134.328 41.72 134.601 41.82 134.814 42.02C135.028 42.22 135.134 42.4867 135.134 42.82C135.134 43.1533 135.028 43.4267 134.814 43.64C134.601 43.84 134.328 43.94 133.994 43.94ZM133.214 56V45.9H134.734V56H133.214ZM140.141 56L136.161 45.9H137.781L141.141 54.66H141.161L144.521 45.9H146.121L142.121 56H140.141ZM152.102 56.4C150.489 56.4 149.155 55.88 148.102 54.84C147.049 53.7867 146.522 52.4533 146.522 50.84C146.522 49.2933 147.009 48.02 147.982 47.02C148.955 46.0067 150.189 45.5 151.682 45.5C153.149 45.5 154.329 46 155.222 47C156.129 48 156.595 49.2867 156.622 50.86C156.622 51.1267 156.615 51.3267 156.602 51.46H148.102C148.209 52.5133 148.635 53.3733 149.382 54.04C150.129 54.6933 151.042 55.02 152.122 55.02C152.895 55.02 153.595 54.84 154.222 54.48C154.849 54.12 155.309 53.66 155.602 53.1L156.922 53.64C156.589 54.4533 155.982 55.12 155.102 55.64C154.222 56.1467 153.222 56.4 152.102 56.4ZM148.122 50.12H155.002C154.909 49.1067 154.562 48.32 153.962 47.76C153.362 47.1867 152.595 46.9 151.662 46.9C150.729 46.9 149.942 47.2 149.302 47.8C148.662 48.3867 148.269 49.16 148.122 50.12Z" fill="black"/>
</svg>
